<svg width="28" height="28" viewBox="0 0 28 28" fill="none" xmlns="http://www.w3.org/2000/svg">
<path d="M2 14C2 7.37258 7.37258 2 14 2C20.6274 2 26 7.37258 26 14C26 20.6274 20.6274 26 14 26C7.37258 26 2 20.6274 2 14Z" fill="#F9F5FF"/>
<path d="M9.63477 17.5341V11.7727H10.7811V17.5341H9.63477ZM7.32937 15.2244V14.0824H13.0907V15.2244H7.32937ZM17.9934 19.1193C17.3826 19.1193 16.8429 19.0142 16.3741 18.804C15.9082 18.5937 15.5431 18.304 15.2789 17.9347C15.0147 17.5653 14.8841 17.1449 14.8869 16.6733C14.8841 16.304 14.9593 15.9645 15.1127 15.6548C15.269 15.3423 15.4806 15.0824 15.7477 14.875C16.0147 14.6648 16.313 14.5312 16.6426 14.4744V14.4233C16.2079 14.3182 15.8599 14.0852 15.5985 13.7244C15.3372 13.3636 15.2079 12.9489 15.2108 12.4801C15.2079 12.0341 15.3258 11.6364 15.5645 11.2869C15.8059 10.9347 16.1369 10.6577 16.5574 10.456C16.9778 10.2543 17.4565 10.1534 17.9934 10.1534C18.5247 10.1534 18.9991 10.2557 19.4167 10.4602C19.8372 10.6619 20.1681 10.9389 20.4096 11.2912C20.6511 11.6406 20.7733 12.0369 20.7761 12.4801C20.7733 12.9489 20.6397 13.3636 20.3755 13.7244C20.1113 14.0852 19.7676 14.3182 19.3443 14.4233V14.4744C19.671 14.5312 19.965 14.6648 20.2264 14.875C20.4906 15.0824 20.7008 15.3423 20.8571 15.6548C21.0162 15.9645 21.0971 16.304 21.1 16.6733C21.0971 17.1449 20.9636 17.5653 20.6994 17.9347C20.4352 18.304 20.0687 18.5937 19.6 18.804C19.1341 19.0142 18.5985 19.1193 17.9934 19.1193ZM17.9934 18.0412C18.3542 18.0412 18.6667 17.9815 18.9309 17.8622C19.1951 17.7401 19.3997 17.571 19.5446 17.3551C19.6895 17.1364 19.7633 16.8807 19.7662 16.5881C19.7633 16.2841 19.6838 16.0156 19.5275 15.7827C19.3741 15.5497 19.1653 15.3665 18.9011 15.233C18.6369 15.0994 18.3343 15.0327 17.9934 15.0327C17.6497 15.0327 17.3443 15.0994 17.0772 15.233C16.8102 15.3665 16.6 15.5497 16.4466 15.7827C16.2931 16.0156 16.2179 16.2841 16.2207 16.5881C16.2179 16.8807 16.2875 17.1364 16.4295 17.3551C16.5744 17.571 16.7804 17.7401 17.0474 17.8622C17.3145 17.9815 17.6298 18.0412 17.9934 18.0412ZM17.9934 13.9801C18.2832 13.9801 18.5403 13.9219 18.7647 13.8054C18.9892 13.6889 19.1653 13.527 19.2931 13.3196C19.4238 13.1122 19.4906 12.8693 19.4934 12.5909C19.4906 12.3182 19.4252 12.0795 19.2974 11.875C19.1724 11.6705 18.9977 11.5128 18.7733 11.402C18.5488 11.2884 18.2889 11.2315 17.9934 11.2315C17.6923 11.2315 17.4281 11.2884 17.2008 11.402C16.9764 11.5128 16.8017 11.6705 16.6767 11.875C16.5517 12.0795 16.4906 12.3182 16.4934 12.5909C16.4906 12.8693 16.5531 13.1122 16.6809 13.3196C16.8088 13.527 16.9849 13.6889 17.2093 13.8054C17.4366 13.9219 17.698 13.9801 17.9934 13.9801Z" fill="#7F56D9"/>
<path d="M14 24C8.47715 24 4 19.5228 4 14H0C0 21.732 6.26801 28 14 28V24ZM24 14C24 19.5228 19.5228 24 14 24V28C21.732 28 28 21.732 28 14H24ZM14 4C19.5228 4 24 8.47715 24 14H28C28 6.26801 21.732 0 14 0V4ZM14 0C6.26801 0 0 6.26801 0 14H4C4 8.47715 8.47715 4 14 4V0Z" fill="white"/>
</svg>
