<svg width="28" height="28" viewBox="0 0 28 28" fill="none" xmlns="http://www.w3.org/2000/svg">
<path d="M2 14C2 7.37258 7.37258 2 14 2C20.6274 2 26 7.37258 26 14C26 20.6274 20.6274 26 14 26C7.37258 26 2 20.6274 2 14Z" fill="#F9F5FF"/>
<path d="M9.92188 17.5341V11.7727H11.0682V17.5341H9.92188ZM7.61648 15.2244V14.0824H13.3778V15.2244H7.61648ZM14.9801 19V18.0455L17.9332 14.9858C18.2486 14.6534 18.5085 14.3622 18.7131 14.1122C18.9205 13.8594 19.0753 13.6193 19.1776 13.392C19.2798 13.1648 19.331 12.9233 19.331 12.6676C19.331 12.3778 19.2628 12.1278 19.1264 11.9176C18.9901 11.7045 18.804 11.5412 18.5682 11.4276C18.3324 11.3111 18.0668 11.2528 17.7713 11.2528C17.4588 11.2528 17.1861 11.3168 16.9531 11.4446C16.7202 11.5724 16.5412 11.7528 16.4162 11.9858C16.2912 12.2187 16.2287 12.4915 16.2287 12.804H14.9716C14.9716 12.2727 15.0938 11.8082 15.3381 11.4105C15.5824 11.0128 15.9176 10.7045 16.3438 10.4858C16.7699 10.2642 17.2543 10.1534 17.7969 10.1534C18.3452 10.1534 18.8281 10.2628 19.2457 10.4815C19.6662 10.6974 19.9943 10.9929 20.2301 11.3679C20.4659 11.7401 20.5838 12.1605 20.5838 12.6293C20.5838 12.9531 20.5227 13.2699 20.4006 13.5795C20.2813 13.8892 20.0724 14.2344 19.7741 14.6151C19.4759 14.9929 19.0611 15.4517 18.5298 15.9915L16.7955 17.8068V17.8707H20.7244V19H14.9801Z" fill="#7F56D9"/>
<path d="M14 24C8.47715 24 4 19.5228 4 14H0C0 21.732 6.26801 28 14 28V24ZM24 14C24 19.5228 19.5228 24 14 24V28C21.732 28 28 21.732 28 14H24ZM14 4C19.5228 4 24 8.47715 24 14H28C28 6.26801 21.732 0 14 0V4ZM14 0C6.26801 0 0 6.26801 0 14H4C4 8.47715 8.47715 4 14 4V0Z" fill="white"/>
</svg>
