<svg width="28" height="28" viewBox="0 0 28 28" fill="none" xmlns="http://www.w3.org/2000/svg">
<path d="M2 14C2 7.37258 7.37258 2 14 2C20.6274 2 26 7.37258 26 14C26 20.6274 20.6274 26 14 26C7.37258 26 2 20.6274 2 14Z" fill="#F9F5FF"/>
<path d="M9.61133 17.5341V11.7727H10.7576V17.5341H9.61133ZM7.30593 15.2244V14.0824H13.0673V15.2244H7.30593ZM18.068 19.1193C17.6788 19.1136 17.2953 19.0426 16.9174 18.9062C16.5424 18.7699 16.2015 18.5426 15.8947 18.2244C15.5879 17.9062 15.3422 17.4787 15.1575 16.9418C14.9757 16.4048 14.8848 15.7344 14.8848 14.9304C14.8848 14.169 14.96 13.4929 15.1106 12.902C15.264 12.3111 15.4842 11.8125 15.7711 11.4062C16.0581 10.9972 16.4047 10.6861 16.8109 10.473C17.2172 10.2599 17.6731 10.1534 18.1788 10.1534C18.6987 10.1534 19.1603 10.2557 19.5637 10.4602C19.9672 10.6648 20.2939 10.9474 20.5439 11.3082C20.7967 11.669 20.9572 12.0795 21.0254 12.5398H19.7257C19.6376 12.1761 19.4629 11.8793 19.2015 11.6491C18.9402 11.419 18.5993 11.304 18.1788 11.304C17.5396 11.304 17.041 11.5824 16.6831 12.1392C16.3279 12.696 16.149 13.4702 16.1461 14.4616H16.21C16.3606 14.2145 16.5453 14.0043 16.764 13.831C16.9856 13.6548 17.2328 13.5199 17.5055 13.4261C17.7811 13.3295 18.0708 13.2812 18.3748 13.2812C18.8805 13.2812 19.3379 13.4048 19.747 13.652C20.1589 13.8963 20.487 14.2344 20.7314 14.6662C20.9757 15.098 21.0978 15.5923 21.0978 16.1491C21.0978 16.706 20.9714 17.2102 20.7186 17.6619C20.4686 18.1136 20.1163 18.4716 19.6618 18.7358C19.2072 18.9972 18.676 19.125 18.068 19.1193ZM18.0637 18.0114C18.399 18.0114 18.6987 17.929 18.9629 17.7642C19.2271 17.5994 19.4359 17.3778 19.5893 17.0994C19.7427 16.821 19.8194 16.5099 19.8194 16.1662C19.8194 15.831 19.7441 15.5256 19.5936 15.25C19.4458 14.9744 19.2413 14.7557 18.9799 14.5938C18.7214 14.4318 18.426 14.3509 18.0936 14.3509C17.8407 14.3509 17.6064 14.3991 17.3904 14.4957C17.1774 14.5923 16.9899 14.7259 16.8279 14.8963C16.666 15.0668 16.5382 15.2628 16.4444 15.4844C16.3535 15.7031 16.3081 15.9347 16.3081 16.179C16.3081 16.5057 16.3833 16.8082 16.5339 17.0866C16.6873 17.3651 16.8961 17.5895 17.1603 17.7599C17.4274 17.9276 17.7285 18.0114 18.0637 18.0114Z" fill="#7F56D9"/>
<path d="M14 24C8.47715 24 4 19.5228 4 14H0C0 21.732 6.26801 28 14 28V24ZM24 14C24 19.5228 19.5228 24 14 24V28C21.732 28 28 21.732 28 14H24ZM14 4C19.5228 4 24 8.47715 24 14H28C28 6.26801 21.732 0 14 0V4ZM14 0C6.26801 0 0 6.26801 0 14H4C4 8.47715 8.47715 4 14 4V0Z" fill="white"/>
</svg>
