<svg width="28" height="28" viewBox="0 0 28 28" fill="none" xmlns="http://www.w3.org/2000/svg">
<path d="M2 14C2 7.37258 7.37258 2 14 2C20.6274 2 26 7.37258 26 14C26 20.6274 20.6274 26 14 26C7.37258 26 2 20.6274 2 14Z" fill="#F9F5FF"/>
<path d="M9.5 17.5341V11.7727H10.6463V17.5341H9.5ZM7.1946 15.2244V14.0824H12.956V15.2244H7.1946ZM14.7266 17.2955V16.2301L18.4979 10.2727H19.3374V11.8409H18.8047L16.1072 16.1108V16.179H21.2763V17.2955H14.7266ZM18.8643 19V16.9716L18.8729 16.4858V10.2727H20.1214V19H18.8643Z" fill="#7F56D9"/>
<path d="M14 24C8.47715 24 4 19.5228 4 14H0C0 21.732 6.26801 28 14 28V24ZM24 14C24 19.5228 19.5228 24 14 24V28C21.732 28 28 21.732 28 14H24ZM14 4C19.5228 4 24 8.47715 24 14H28C28 6.26801 21.732 0 14 0V4ZM14 0C6.26801 0 0 6.26801 0 14H4C4 8.47715 8.47715 4 14 4V0Z" fill="white"/>
</svg>
